<svg width="20" height="20" viewBox="0 0 20 20" fill="none" xmlns="http://www.w3.org/2000/svg">
<path d="M12.5 15.8334C12.5 16.4965 12.2366 17.1324 11.7677 17.6012C11.2989 18.07 10.663 18.3334 9.99997 18.3334C9.33693 18.3334 8.70104 18.07 8.2322 17.6012C7.76336 17.1324 7.49997 16.4965 7.49997 15.8334M10.6008 4.16926L9.37914 4.16676C6.59247 4.1601 4.1733 6.42426 4.15414 9.16676V12.3251C4.15414 12.9834 4.0708 13.6259 3.71164 14.1734L3.47247 14.5384C3.1083 15.0918 3.49997 15.8334 4.15414 15.8334H15.8458C16.5 15.8334 16.8908 15.0918 16.5275 14.5384L16.2883 14.1734C15.93 13.6259 15.8458 12.9826 15.8458 12.3243V9.1676C15.8125 6.42426 13.3875 4.17593 10.6008 4.16926V4.16926Z" stroke="white" stroke-opacity="0.87" stroke-width="1.5" stroke-linecap="round" stroke-linejoin="round"/>
<path d="M9.99992 1.66675C10.4419 1.66675 10.8659 1.84234 11.1784 2.1549C11.491 2.46746 11.6666 2.89139 11.6666 3.33341V4.16675H8.33325V3.33341C8.33325 2.89139 8.50885 2.46746 8.82141 2.1549C9.13397 1.84234 9.55789 1.66675 9.99992 1.66675Z" stroke="white" stroke-opacity="0.87" stroke-width="1.5" stroke-linecap="round" stroke-linejoin="round"/>
</svg>
