<svg width="12" height="12" viewBox="0 0 12 12" fill="none" xmlns="http://www.w3.org/2000/svg">
<path d="M11.4861 0.458369C11.376 0.38688 11.2528 0.337793 11.1237 0.313912C10.9946 0.290031 10.862 0.291823 10.7336 0.319187C10.6051 0.346551 10.4834 0.39895 10.3752 0.473391C10.267 0.547832 10.1746 0.642857 10.1031 0.753035L4.49979 9.39004L1.76712 6.86337C1.67071 6.77422 1.55768 6.70494 1.43449 6.65948C1.31131 6.61401 1.18037 6.59326 1.04916 6.59839C0.784172 6.60877 0.534159 6.72399 0.354121 6.9187C0.174083 7.11342 0.0787685 7.37167 0.0891455 7.63666C0.0995225 7.90165 0.214741 8.15166 0.409454 8.3317L3.99745 11.649C3.99745 11.649 4.10045 11.7377 4.14812 11.7687C4.25828 11.8402 4.38146 11.8894 4.51062 11.9133C4.63978 11.9372 4.77238 11.9354 4.90085 11.908C5.02932 11.8807 5.15114 11.8283 5.25934 11.7538C5.36755 11.6793 5.46001 11.5843 5.53145 11.474L11.7808 1.84137C11.8523 1.73122 11.9014 1.60807 11.9252 1.47894C11.9491 1.34982 11.9473 1.21725 11.92 1.08882C11.8926 0.960392 11.8402 0.83861 11.7658 0.730435C11.6913 0.62226 11.5963 0.529811 11.4861 0.458369Z" fill="#F6A740"/>
</svg>
